<?xml version="1.0" encoding="UTF-8" standalone="no"?>
<!-- Created with Inkscape (http://www.inkscape.org/) -->
<svg
   xmlns:dc="http://purl.org/dc/elements/1.1/"
   xmlns:cc="http://creativecommons.org/ns#"
   xmlns:rdf="http://www.w3.org/1999/02/22-rdf-syntax-ns#"
   xmlns:svg="http://www.w3.org/2000/svg"
   xmlns="http://www.w3.org/2000/svg"
   xmlns:xlink="http://www.w3.org/1999/xlink"
   xmlns:sodipodi="http://sodipodi.sourceforge.net/DTD/sodipodi-0.dtd"
   xmlns:inkscape="http://www.inkscape.org/namespaces/inkscape"
   width="744.09448819"
   height="1052.3622047"
   id="svg3698"
   sodipodi:version="0.32"
   inkscape:version="0.46"
   sodipodi:docname="splash.svg"
   inkscape:output_extension="org.inkscape.output.svg.inkscape"
   inkscape:export-filename="D:\Files\Files\Programmering\Workspace\VirtualDJScrobbler\src\main\resources\splash.png"
   inkscape:export-xdpi="44.542801"
   inkscape:export-ydpi="44.542801">
  <defs
     id="defs3700"><inkscape:perspective
   sodipodi:type="inkscape:persp3d"
   inkscape:vp_x="0 : 526.18109 : 1"
   inkscape:vp_y="0 : 1000 : 0"
   inkscape:vp_z="744.09448 : 526.18109 : 1"
   inkscape:persp3d-origin="372.04724 : 350.78739 : 1"
   id="perspective3706" />
<inkscape:perspective
   id="perspective3806"
   inkscape:persp3d-origin="372.04724 : 350.78739 : 1"
   inkscape:vp_z="744.09448 : 526.18109 : 1"
   inkscape:vp_y="0 : 1000 : 0"
   inkscape:vp_x="0 : 526.18109 : 1"
   sodipodi:type="inkscape:persp3d" />
<inkscape:perspective
   sodipodi:type="inkscape:persp3d"
   inkscape:vp_x="0 : 60.127438 : 1"
   inkscape:vp_y="0 : 1000 : 0"
   inkscape:vp_z="193.24133 : 60.127438 : 1"
   inkscape:persp3d-origin="96.620667 : 40.084958 : 1"
   id="perspective2668" />
<style
   type="text/css"
   id="style2659">
   
    .fil0 {fill:#1F1A17}
   
  </style>
<inkscape:perspective
   sodipodi:type="inkscape:persp3d"
   inkscape:vp_x="0 : 526.18109 : 1"
   inkscape:vp_y="0 : 1000 : 0"
   inkscape:vp_z="744.09448 : 526.18109 : 1"
   inkscape:persp3d-origin="372.04724 : 350.78739 : 1"
   id="perspective2577" />
<radialGradient
   r="68.84375"
   fy="192.84375"
   fx="199.28125"
   cy="192.84375"
   cx="199.28125"
   gradientTransform="matrix(0,2.77821,-0.823879,0,358.88,-353.646)"
   gradientUnits="userSpaceOnUse"
   id="radialGradient3352"
   xlink:href="#linearGradient3273"
   inkscape:collect="always" />
<radialGradient
   r="53.6875"
   fy="192.84375"
   fx="199.28125"
   cy="192.84375"
   cx="199.28125"
   gradientTransform="matrix(2.03142, 2.03142, -0.707107, 0.707107, -68.4624, -341.185)"
   gradientUnits="userSpaceOnUse"
   id="radialGradient3344"
   xlink:href="#linearGradient3263"
   inkscape:collect="always" />
<radialGradient
   r="68.84375"
   fy="192.84375"
   fx="199.28125"
   cy="192.84375"
   cx="199.28125"
   gradientTransform="matrix(1.96449, 1.96449, -0.58257, 0.58257, -79.1419, -303.832)"
   gradientUnits="userSpaceOnUse"
   id="radialGradient3342"
   xlink:href="#linearGradient3273"
   inkscape:collect="always" />
<radialGradient
   r="92.5"
   fy="209.66924"
   fx="289.42923"
   cy="209.66924"
   cx="289.42923"
   gradientTransform="matrix(0.869589,-0.869589,1.96149,1.96149,-281.51,221.859)"
   gradientUnits="userSpaceOnUse"
   id="radialGradient3331"
   xlink:href="#linearGradient3153"
   inkscape:collect="always" />
<radialGradient
   r="92.5"
   fy="209.66924"
   fx="289.42923"
   cy="209.66924"
   cx="289.42923"
   gradientTransform="matrix(-0.869589,0.869589,-1.96149,-1.96149,681.51,178.141)"
   gradientUnits="userSpaceOnUse"
   id="radialGradient3328"
   xlink:href="#linearGradient3153"
   inkscape:collect="always" />
<radialGradient
   r="68.84375"
   fy="192.84375"
   fx="199.28125"
   cy="192.84375"
   cx="199.28125"
   gradientTransform="matrix(1.96449, 1.96449, -0.58257, 0.58257, -79.1419, -303.832)"
   gradientUnits="userSpaceOnUse"
   id="radialGradient3325"
   xlink:href="#linearGradient3273"
   inkscape:collect="always" />
<radialGradient
   r="53.6875"
   fy="192.84375"
   fx="199.28125"
   cy="192.84375"
   cx="199.28125"
   gradientTransform="matrix(2.03142, 2.03142, -0.707107, 0.707107, -68.4624, -341.185)"
   gradientUnits="userSpaceOnUse"
   id="radialGradient3322"
   xlink:href="#linearGradient3263"
   inkscape:collect="always" />
<filter
   id="filter3315"
   inkscape:collect="always">
  <feGaussianBlur
     id="feGaussianBlur3317"
     stdDeviation="3.7000001"
     inkscape:collect="always" />
</filter>
<radialGradient
   r="53.6875"
   fy="192.84375"
   fx="199.28125"
   cy="192.84375"
   cx="199.28125"
   gradientTransform="matrix(2.03142, 2.03142, -0.707107, 0.707107, -69.1812, -348.341)"
   gradientUnits="userSpaceOnUse"
   id="radialGradient3307"
   xlink:href="#linearGradient3263"
   inkscape:collect="always" />
<radialGradient
   r="68.84375"
   fy="192.84375"
   fx="199.28125"
   cy="192.84375"
   cx="199.28125"
   gradientTransform="matrix(1.96449, 1.96449, -0.58257, 0.58257, -79.8606, -310.988)"
   gradientUnits="userSpaceOnUse"
   id="radialGradient3305"
   xlink:href="#linearGradient3273"
   inkscape:collect="always" />
<radialGradient
   r="92.5"
   fy="209.66924"
   fx="289.42923"
   cy="209.66924"
   cx="289.42923"
   gradientTransform="matrix(-0.869589, 0.869589, -1.96149, -1.96149, 680.792, 170.985)"
   gradientUnits="userSpaceOnUse"
   id="radialGradient3303"
   xlink:href="#linearGradient3153"
   inkscape:collect="always" />
<radialGradient
   r="92.5"
   fy="209.66924"
   fx="289.42923"
   cy="209.66924"
   cx="289.42923"
   gradientTransform="matrix(0.869589, -0.869589, 1.96149, 1.96149, -282.229, 214.702)"
   gradientUnits="userSpaceOnUse"
   id="radialGradient3301"
   xlink:href="#linearGradient3153"
   inkscape:collect="always" />
<radialGradient
   r="53.6875"
   fy="192.84375"
   fx="199.28125"
   cy="192.84375"
   cx="199.28125"
   gradientTransform="matrix(0.196763, 0.196763, -0.0684905, 0.0684905, 173.278, 140.425)"
   gradientUnits="userSpaceOnUse"
   id="radialGradient3285"
   xlink:href="#linearGradient3263"
   inkscape:collect="always" />
<radialGradient
   gradientTransform="matrix(1.96449, 1.96449, -0.58257, 0.58257, -79.8606, -310.988)"
   gradientUnits="userSpaceOnUse"
   r="68.84375"
   fy="192.84375"
   fx="199.28125"
   cy="192.84375"
   cx="199.28125"
   id="radialGradient3281"
   xlink:href="#linearGradient3273"
   inkscape:collect="always" />
<radialGradient
   gradientTransform="matrix(2.03142, 2.03142, -0.707107, 0.707107, -69.1812, -348.341)"
   gradientUnits="userSpaceOnUse"
   r="53.6875"
   fy="192.84375"
   fx="199.28125"
   cy="192.84375"
   cx="199.28125"
   id="radialGradient3269"
   xlink:href="#linearGradient3263"
   inkscape:collect="always" />
<radialGradient
   r="92.5"
   fy="209.66924"
   fx="289.42923"
   cy="209.66924"
   cx="289.42923"
   gradientTransform="matrix(-0.869589, 0.869589, -1.96149, -1.96149, 680.792, 170.985)"
   gradientUnits="userSpaceOnUse"
   id="radialGradient3195"
   xlink:href="#linearGradient3153"
   inkscape:collect="always" />
<radialGradient
   r="92.5"
   fy="209.66924"
   fx="289.42923"
   cy="209.66924"
   cx="289.42923"
   gradientTransform="matrix(0.869589, -0.869589, 1.96149, 1.96149, -282.229, 214.702)"
   gradientUnits="userSpaceOnUse"
   id="radialGradient3185"
   xlink:href="#linearGradient3153"
   inkscape:collect="always" />
<linearGradient
   id="linearGradient3153">
  <stop
     id="stop3155"
     offset="0"
     style="stop-color: rgb(255, 255, 255); stop-opacity: 1;" />
  <stop
     id="stop3157"
     offset="1"
     style="stop-color: rgb(255, 255, 255); stop-opacity: 0;" />
</linearGradient>
<linearGradient
   id="linearGradient3263">
  <stop
     id="stop3265"
     offset="0"
     style="stop-color: rgb(247, 247, 247); stop-opacity: 1;" />
  <stop
     id="stop3267"
     offset="1"
     style="stop-color: rgb(225, 225, 225); stop-opacity: 1;" />
</linearGradient>
<linearGradient
   id="linearGradient3273">
  <stop
     id="stop3275"
     offset="0"
     style="stop-color: rgb(108, 108, 108); stop-opacity: 1;" />
  <stop
     id="stop3277"
     offset="1"
     style="stop-color: rgb(62, 62, 62); stop-opacity: 1;" />
</linearGradient>
<inkscape:perspective
   id="perspective2528"
   inkscape:persp3d-origin="200 : 133.33333 : 1"
   inkscape:vp_z="400 : 200 : 1"
   inkscape:vp_y="0 : 1000 : 0"
   inkscape:vp_x="0 : 200 : 1"
   sodipodi:type="inkscape:persp3d" />
<inkscape:perspective
   sodipodi:type="inkscape:persp3d"
   inkscape:vp_x="0 : 36.079369 : 1"
   inkscape:vp_y="0 : 1000 : 0"
   inkscape:vp_z="414.94962 : 36.079369 : 1"
   inkscape:persp3d-origin="207.47481 : 24.052912 : 1"
   id="perspective3654" />
<style
   type="text/css"
   id="style3626">
   
    .str1 {stroke:#1F1A17;stroke-width:0.827552}
    .str0 {stroke:#1F1A17;stroke-width:21.7205}
    .fil2 {fill:none;fill-rule:nonzero}
    .fil0 {fill:#DA251D}
    .fil1 {fill:#1F1A17;fill-rule:nonzero}
   
  </style>
<inkscape:perspective
   sodipodi:type="inkscape:persp3d"
   inkscape:vp_x="0 : 36.093189 : 1"
   inkscape:vp_y="0 : 1000 : 0"
   inkscape:vp_z="379.51654 : 36.093189 : 1"
   inkscape:persp3d-origin="189.75827 : 24.062126 : 1"
   id="perspective3595" />
<style
   type="text/css"
   id="style3567">
   
    .str1 {stroke:#1F1A17;stroke-width:0.756887}
    .str2 {stroke:white;stroke-width:0.756887}
    .str0 {stroke:#1F1A17;stroke-width:19.8658}
    .fil3 {fill:none;fill-rule:nonzero}
    .fil0 {fill:#DA251D}
    .fil1 {fill:#1F1A17;fill-rule:nonzero}
    .fil2 {fill:white;fill-rule:nonzero}
   
  </style>
<inkscape:perspective
   sodipodi:type="inkscape:persp3d"
   inkscape:vp_x="0 : 60.127438 : 1"
   inkscape:vp_y="0 : 1000 : 0"
   inkscape:vp_z="193.24133 : 60.127438 : 1"
   inkscape:persp3d-origin="96.620667 : 40.084958 : 1"
   id="perspective4273" />
<style
   type="text/css"
   id="style4271">
   
    .fil0 {fill:#1F1A17}
   
  </style>
<inkscape:perspective
   sodipodi:type="inkscape:persp3d"
   inkscape:vp_x="0 : 526.18109 : 1"
   inkscape:vp_y="0 : 1000 : 0"
   inkscape:vp_z="744.09448 : 526.18109 : 1"
   inkscape:persp3d-origin="372.04724 : 350.78739 : 1"
   id="perspective4269" />
<radialGradient
   r="68.84375"
   fy="192.84375"
   fx="199.28125"
   cy="192.84375"
   cx="199.28125"
   gradientTransform="matrix(0, 2.77821, -0.823879, 0, 358.88, -353.646)"
   gradientUnits="userSpaceOnUse"
   id="radialGradient4267"
   xlink:href="#linearGradient3273"
   inkscape:collect="always" />
<radialGradient
   r="53.6875"
   fy="192.84375"
   fx="199.28125"
   cy="192.84375"
   cx="199.28125"
   gradientTransform="matrix(2.03142, 2.03142, -0.707107, 0.707107, -68.4624, -341.185)"
   gradientUnits="userSpaceOnUse"
   id="radialGradient4265"
   xlink:href="#linearGradient3263"
   inkscape:collect="always" />
<radialGradient
   r="68.84375"
   fy="192.84375"
   fx="199.28125"
   cy="192.84375"
   cx="199.28125"
   gradientTransform="matrix(1.96449, 1.96449, -0.58257, 0.58257, -79.1419, -303.832)"
   gradientUnits="userSpaceOnUse"
   id="radialGradient4263"
   xlink:href="#linearGradient3273"
   inkscape:collect="always" />
<radialGradient
   r="92.5"
   fy="209.66924"
   fx="289.42923"
   cy="209.66924"
   cx="289.42923"
   gradientTransform="matrix(0.869589, -0.869589, 1.96149, 1.96149, -281.51, 221.859)"
   gradientUnits="userSpaceOnUse"
   id="radialGradient4261"
   xlink:href="#linearGradient3153"
   inkscape:collect="always" />
<radialGradient
   r="92.5"
   fy="209.66924"
   fx="289.42923"
   cy="209.66924"
   cx="289.42923"
   gradientTransform="matrix(-0.869589, 0.869589, -1.96149, -1.96149, 681.51, 178.141)"
   gradientUnits="userSpaceOnUse"
   id="radialGradient4259"
   xlink:href="#linearGradient3153"
   inkscape:collect="always" />
<radialGradient
   r="68.84375"
   fy="192.84375"
   fx="199.28125"
   cy="192.84375"
   cx="199.28125"
   gradientTransform="matrix(1.96449, 1.96449, -0.58257, 0.58257, -79.1419, -303.832)"
   gradientUnits="userSpaceOnUse"
   id="radialGradient4257"
   xlink:href="#linearGradient3273"
   inkscape:collect="always" />
<radialGradient
   r="53.6875"
   fy="192.84375"
   fx="199.28125"
   cy="192.84375"
   cx="199.28125"
   gradientTransform="matrix(2.03142, 2.03142, -0.707107, 0.707107, -68.4624, -341.185)"
   gradientUnits="userSpaceOnUse"
   id="radialGradient4255"
   xlink:href="#linearGradient3263"
   inkscape:collect="always" />
<radialGradient
   r="53.6875"
   fy="192.84375"
   fx="199.28125"
   cy="192.84375"
   cx="199.28125"
   gradientTransform="matrix(2.03142, 2.03142, -0.707107, 0.707107, -69.1812, -348.341)"
   gradientUnits="userSpaceOnUse"
   id="radialGradient4249"
   xlink:href="#linearGradient3263"
   inkscape:collect="always" />
<radialGradient
   r="68.84375"
   fy="192.84375"
   fx="199.28125"
   cy="192.84375"
   cx="199.28125"
   gradientTransform="matrix(1.96449, 1.96449, -0.58257, 0.58257, -79.8606, -310.988)"
   gradientUnits="userSpaceOnUse"
   id="radialGradient4247"
   xlink:href="#linearGradient3273"
   inkscape:collect="always" />
<radialGradient
   r="92.5"
   fy="209.66924"
   fx="289.42923"
   cy="209.66924"
   cx="289.42923"
   gradientTransform="matrix(-0.869589, 0.869589, -1.96149, -1.96149, 680.792, 170.985)"
   gradientUnits="userSpaceOnUse"
   id="radialGradient4245"
   xlink:href="#linearGradient3153"
   inkscape:collect="always" />
<radialGradient
   r="92.5"
   fy="209.66924"
   fx="289.42923"
   cy="209.66924"
   cx="289.42923"
   gradientTransform="matrix(0.869589, -0.869589, 1.96149, 1.96149, -282.229, 214.702)"
   gradientUnits="userSpaceOnUse"
   id="radialGradient4243"
   xlink:href="#linearGradient3153"
   inkscape:collect="always" />
<radialGradient
   r="53.6875"
   fy="192.84375"
   fx="199.28125"
   cy="192.84375"
   cx="199.28125"
   gradientTransform="matrix(0.196763, 0.196763, -0.0684905, 0.0684905, 173.278, 140.425)"
   gradientUnits="userSpaceOnUse"
   id="radialGradient4241"
   xlink:href="#linearGradient3263"
   inkscape:collect="always" />
<radialGradient
   gradientTransform="matrix(1.96449, 1.96449, -0.58257, 0.58257, -79.8606, -310.988)"
   gradientUnits="userSpaceOnUse"
   r="68.84375"
   fy="192.84375"
   fx="199.28125"
   cy="192.84375"
   cx="199.28125"
   id="radialGradient4239"
   xlink:href="#linearGradient3273"
   inkscape:collect="always" />
<radialGradient
   gradientTransform="matrix(2.03142, 2.03142, -0.707107, 0.707107, -69.1812, -348.341)"
   gradientUnits="userSpaceOnUse"
   r="53.6875"
   fy="192.84375"
   fx="199.28125"
   cy="192.84375"
   cx="199.28125"
   id="radialGradient4237"
   xlink:href="#linearGradient3263"
   inkscape:collect="always" />
<radialGradient
   r="92.5"
   fy="209.66924"
   fx="289.42923"
   cy="209.66924"
   cx="289.42923"
   gradientTransform="matrix(-0.869589, 0.869589, -1.96149, -1.96149, 680.792, 170.985)"
   gradientUnits="userSpaceOnUse"
   id="radialGradient4235"
   xlink:href="#linearGradient3153"
   inkscape:collect="always" />
<radialGradient
   r="92.5"
   fy="209.66924"
   fx="289.42923"
   cy="209.66924"
   cx="289.42923"
   gradientTransform="matrix(0.869589, -0.869589, 1.96149, 1.96149, -282.229, 214.702)"
   gradientUnits="userSpaceOnUse"
   id="radialGradient4233"
   xlink:href="#linearGradient3153"
   inkscape:collect="always" />
<linearGradient
   id="linearGradient4227">
  <stop
     id="stop4229"
     offset="0"
     style="stop-color: rgb(255, 255, 255); stop-opacity: 1;" />
  <stop
     id="stop4231"
     offset="1"
     style="stop-color: rgb(255, 255, 255); stop-opacity: 0;" />
</linearGradient>
<linearGradient
   id="linearGradient4221">
  <stop
     id="stop4223"
     offset="0"
     style="stop-color: rgb(247, 247, 247); stop-opacity: 1;" />
  <stop
     id="stop4225"
     offset="1"
     style="stop-color: rgb(225, 225, 225); stop-opacity: 1;" />
</linearGradient>
<linearGradient
   id="linearGradient4215">
  <stop
     id="stop4217"
     offset="0"
     style="stop-color: rgb(108, 108, 108); stop-opacity: 1;" />
  <stop
     id="stop4219"
     offset="1"
     style="stop-color: rgb(62, 62, 62); stop-opacity: 1;" />
</linearGradient>
<inkscape:perspective
   id="perspective4213"
   inkscape:persp3d-origin="200 : 133.33333 : 1"
   inkscape:vp_z="400 : 200 : 1"
   inkscape:vp_y="0 : 1000 : 0"
   inkscape:vp_x="0 : 200 : 1"
   sodipodi:type="inkscape:persp3d" />
<inkscape:perspective
   id="perspective4376"
   inkscape:persp3d-origin="372.04724 : 350.78739 : 1"
   inkscape:vp_z="744.09448 : 526.18109 : 1"
   inkscape:vp_y="0 : 1000 : 0"
   inkscape:vp_x="0 : 526.18109 : 1"
   sodipodi:type="inkscape:persp3d" />

 <style
   id="style6"
   type="text/css">
   
    .fil0 {fill:#1F1A17}
   
  </style>

  <inkscape:perspective
   id="perspective63"
   inkscape:persp3d-origin="358.54016 : 40.084958 : 1"
   inkscape:vp_z="717.08032 : 60.127438 : 1"
   inkscape:vp_y="0 : 1000 : 0"
   inkscape:vp_x="0 : 60.127438 : 1"
   sodipodi:type="inkscape:persp3d" />
</defs>
  <sodipodi:namedview
     id="base"
     pagecolor="#ffffff"
     bordercolor="#666666"
     borderopacity="1.0"
     gridtolerance="10000"
     guidetolerance="10"
     objecttolerance="10"
     inkscape:pageopacity="0.0"
     inkscape:pageshadow="2"
     inkscape:zoom="0.85545101"
     inkscape:cx="352.45392"
     inkscape:cy="528.79551"
     inkscape:document-units="px"
     inkscape:current-layer="layer1"
     showgrid="false"
     inkscape:window-width="1786"
     inkscape:window-height="1146"
     inkscape:window-x="-4"
     inkscape:window-y="-4"
     showguides="true"
     inkscape:guide-bbox="true">
    <sodipodi:guide
       orientation="0,1"
       position="-272.37094,1002.9797"
       id="guide4406" />
    <sodipodi:guide
       orientation="1,0"
       position="-429.01346,863.87179"
       id="guide4408" />
    <sodipodi:guide
       orientation="1,0"
       position="1173.6499,587.99393"
       id="guide4412" />
    <sodipodi:guide
       orientation="0,1"
       position="821.78873,101.70074"
       id="guide4414" />
  </sodipodi:namedview>
  <metadata
     id="metadata3703">
    <rdf:RDF>
      <cc:Work
         rdf:about="">
        <dc:format>image/svg+xml</dc:format>
        <dc:type
           rdf:resource="http://purl.org/dc/dcmitype/StillImage" />
      </cc:Work>
    </rdf:RDF>
  </metadata>
  <g
     inkscape:label="Layer 1"
     inkscape:groupmode="layer"
     id="layer1">
    <rect
       style="fill:#4d4d4d;stroke:#4d4d4d;stroke-width:12;stroke-miterlimit:4;stroke-dasharray:none"
       id="rect4418"
       width="1602.6633"
       height="901.27893"
       x="-429.01346"
       y="49.382484" />
    <image
       y="49.623203"
       x="-428.25696"
       id="image4378"
       height="901.26422"
       width="1602.2474"
       sodipodi:absref="F:\Bilder\My Pictures\Rave (200+ Partypeople)\2009-04-10 - XStatic Copenhagen 2009 (Valbyhallen, Köpenhamn)\Photos\XStatic 196.jpg"
       xlink:href="F:\Bilder\My Pictures\Rave (200+ Partypeople)\2009-04-10 - XStatic Copenhagen 2009 (Valbyhallen, Köpenhamn)\Photos\XStatic 196.jpg" />
    <g
       style="display:inline"
       inkscape:label="draw"
       id="layer2"
       transform="matrix(1.1188232,0,0,1.1188232,-425.03931,52.840855)">
      <path
         style="opacity:1;fill:#000000;fill-opacity:0.50857101;fill-rule:evenodd;stroke:none;stroke-width:2.70000005;stroke-linecap:butt;stroke-linejoin:miter;marker:none;stroke-miterlimit:4;stroke-dasharray:none;stroke-dashoffset:0;stroke-opacity:1;visibility:visible;display:inline;overflow:visible;filter:url(#filter3315)"
         d="M 202.71429,19 C 100.59429,19 17.714286,101.88 17.714286,204 C 17.714286,306.12 100.59429,389 202.71429,389 C 304.83429,389 387.71431,306.12 387.71429,204 C 387.71429,101.88 304.83429,19 202.71429,19 z M 202.71429,198.8125 C 205.58074,198.8125 207.90178,201.13355 207.90179,204 C 207.90179,206.86645 205.58074,209.18749 202.71429,209.1875 C 199.84784,209.1875 197.5268,206.86645 197.52679,204 C 197.52679,201.13355 199.84784,198.81251 202.71429,198.8125 z"
         id="path3309" />
      <path
         id="path3191"
         d="M 200,15 C 97.88,15 15,97.88 15,200 C 15,302.12 97.88,385 200,385 C 302.12,385 385.00002,302.12 385,200 C 385,97.88 302.12,15 200,15 z M 200,194.8125 C 202.86645,194.8125 205.18749,197.13355 205.1875,200 C 205.1875,202.86645 202.86645,205.18749 200,205.1875 C 197.13355,205.1875 194.81251,202.86645 194.8125,200 C 194.8125,197.13355 197.13355,194.81251 200,194.8125 z"
         style="fill:#000000;fill-opacity:1;fill-rule:evenodd;stroke:none;stroke-width:2.70000005;stroke-linecap:butt;stroke-linejoin:miter;marker:none;stroke-miterlimit:4;stroke-dasharray:none;stroke-dashoffset:0;stroke-opacity:1;visibility:visible;display:inline;overflow:visible" />
      <path
         id="path3271"
         d="M 200,132.65625 C 162.84075,132.65625 132.65625,162.84075 132.65625,200 C 132.65625,237.15925 162.84075,267.34375 200,267.34375 C 237.15925,267.34375 267.34375,237.15925 267.34375,200 C 267.34375,162.84075 237.15925,132.65625 200,132.65625 z M 200,195.5625 C 202.45408,195.5625 204.4375,197.54592 204.4375,200 C 204.4375,202.45408 202.45408,204.4375 200,204.4375 C 197.54592,204.4375 195.5625,202.45408 195.5625,200 C 195.5625,197.54592 197.54592,195.5625 200,195.5625 z"
         style="fill:#333333;fill-opacity:1;fill-rule:evenodd;stroke:none;stroke-width:2.70000005;stroke-linecap:butt;stroke-linejoin:miter;marker:none;stroke-miterlimit:4;stroke-dasharray:none;stroke-dashoffset:0;stroke-opacity:1;visibility:visible;display:inline;overflow:visible" />
      <path
         id="path3176"
         d="M 200,15 C 97.88,15 15,97.88 15,200 C 15,302.12 97.88,385 200,385 C 302.12,385 385.00002,302.12 385,200 C 385,97.88 302.12,15 200,15 z M 200,18.59375 C 300.14858,18.59375 381.4375,99.851427 381.4375,200 C 381.43751,300.14858 300.14857,381.4375 200,381.4375 C 99.85143,381.43749 18.5625,300.14857 18.5625,200 C 18.562501,99.85143 99.851427,18.59375 200,18.59375 z"
         style="fill:#000000;fill-opacity:1;fill-rule:evenodd;stroke:none;stroke-width:2.70000005;stroke-linecap:butt;stroke-linejoin:miter;marker:none;stroke-miterlimit:4;stroke-dasharray:none;stroke-dashoffset:0;stroke-opacity:1;visibility:visible;display:inline;overflow:visible" />
      <path
         id="path3151"
         d="M 293.5625,200 C 293.5625,251.65143 251.65143,293.59375 200,293.59375 L 200,381.4375 C 300.14857,381.4375 381.43751,300.14858 381.4375,200 L 293.5625,200 z"
         style="fill:url(#radialGradient3331);fill-opacity:1;fill-rule:evenodd;stroke:none;stroke-width:2.70000005;stroke-linecap:butt;stroke-linejoin:miter;marker:none;stroke-miterlimit:4;stroke-dasharray:none;stroke-dashoffset:0;stroke-opacity:1;visibility:visible;display:inline;overflow:visible" />
      <path
         inkscape:transform-center-y="-90.71875"
         inkscape:transform-center-x="90.71875"
         id="path3193"
         d="M 106.4375,200 C 106.4375,148.34857 148.34857,106.40625 200,106.40625 L 200,18.5625 C 99.85143,18.5625 18.56249,99.85142 18.5625,200 L 106.4375,200 z"
         style="fill:url(#radialGradient3328);fill-opacity:1;fill-rule:evenodd;stroke:none;stroke-width:2.70000005;stroke-linecap:butt;stroke-linejoin:miter;marker:none;stroke-miterlimit:4;stroke-dasharray:none;stroke-dashoffset:0;stroke-opacity:1;visibility:visible;display:inline;overflow:visible" />
      <path
         id="path3215"
         d="M 248.67988,151.32012 C 221.81299,124.45323 178.18701,124.45323 151.32012,151.32012 C 124.45323,178.18701 124.45323,221.813 151.32012,248.67989 C 178.18701,275.54678 221.81299,275.54678 248.67988,248.67989 C 275.54677,221.813 275.54677,178.18701 248.67988,151.32012 z M 246.53647,153.46354 C 272.2205,179.14758 272.22051,220.85245 246.53647,246.53647 C 220.85243,272.22051 179.14756,272.22052 153.46353,246.53647 C 127.7795,220.85244 127.77951,179.14758 153.46353,153.46354 C 179.14757,127.77951 220.85243,127.77951 246.53647,153.46354 z"
         style="fill:url(#radialGradient3352);fill-opacity:1;fill-rule:evenodd;stroke:none;stroke-width:2.70000005;stroke-linecap:butt;stroke-linejoin:miter;marker:none;stroke-miterlimit:4;stroke-dasharray:none;stroke-dashoffset:0;stroke-opacity:1;visibility:visible;display:inline;overflow:visible" />
      <path
         id="path3223"
         d="M 237.9628,162.03721 C 217.01018,141.08461 182.98981,141.0846 162.0372,162.03721 C 141.0846,182.98983 141.0846,217.0102 162.0372,237.9628 C 182.98982,258.9154 217.01019,258.91541 237.9628,237.9628 C 258.9154,217.01019 258.9154,182.98982 237.9628,162.03721 z M 203.66812,196.33189 C 205.695,198.35878 205.695,201.64123 203.66812,203.66812 C 201.64123,205.69501 198.35878,205.695 196.33188,203.66812 C 194.305,201.64124 194.305,198.35878 196.33188,196.33189 C 198.35877,194.30501 201.64122,194.30501 203.66812,196.33189 z"
         style="fill:#e6e6e6;fill-opacity:1;fill-rule:evenodd;stroke:none;stroke-width:2.70000005;stroke-linecap:butt;stroke-linejoin:miter;marker:none;stroke-miterlimit:4;stroke-dasharray:none;stroke-dashoffset:0;stroke-opacity:1;visibility:visible;display:inline;overflow:visible" />
      <path
         id="path3230"
         d="M 243.95111,156.0489 C 236.88934,148.98714 228.54494,143.99555 219.66641,141.04498 L 218.42897,144.75729 C 226.74429,147.52173 234.55352,152.21978 241.16687,158.83313 C 249.22313,166.88939 254.42281,176.71746 256.76742,187.07321 L 260.59021,186.21143 C 258.08816,175.15585 252.5526,164.6504 243.95111,156.0489 z"
         style="opacity:0.742574;fill:#ffffff;fill-opacity:1;fill-rule:evenodd;stroke:none;stroke-width:2.70000005;stroke-linecap:butt;stroke-linejoin:miter;marker:none;stroke-miterlimit:4;stroke-dasharray:none;stroke-dashoffset:0;stroke-opacity:1;visibility:visible;display:inline;overflow:visible" />
      <path
         id="path3232"
         d="M 142.61386,190.25519 L 138.72478,189.59228 C 135.48763,208.76541 141.26325,229.16548 156.04889,243.95112 C 170.79484,258.69705 191.12486,264.47752 210.25305,261.29733 L 209.61223,257.43034 C 191.68712,260.41422 172.6504,254.98415 158.83313,241.16688 C 144.98085,227.3146 139.57975,208.21994 142.61386,190.25519 z"
         style="opacity:0.742574;fill:#ffffff;fill-opacity:1;fill-rule:evenodd;stroke:none;stroke-width:2.70000005;stroke-linecap:butt;stroke-linejoin:miter;marker:none;stroke-miterlimit:4;stroke-dasharray:none;stroke-dashoffset:0;stroke-opacity:1;visibility:visible;display:inline;overflow:visible" />
      <g
         transform="matrix(0.2911518,0,0,0.2911518,43.839043,37.191094)"
         id="g3599">
        <metadata
           id="metadata3601" />
        <rect
           style="fill:#da251d;stroke:#1f1a17;stroke-width:19.86580086"
           class="fil0 str0"
           x="9.9328699"
           y="9.9328899"
           width="1044.03"
           height="182.493"
           id="rect3571" />
        <path
           style="fill:#1f1a17;fill-rule:nonzero"
           class="fil1"
           d="M 98.8571,140.229 C 99.666631,140.229 100.47616,139.95982 101.28669,139.41947 C 102.09622,138.88011 102.77066,137.86696 103.31101,136.38298 L 138.94531,34.742979 L 162.63431,34.742979 L 123.15301,146.50598 C 121.26377,152.04059 118.12498,156.124 113.73861,158.75618 C 109.35125,161.3874 104.25567,162.70351 98.45191,162.70351 C 92.64812,162.70351 87.55251,161.35363 83.16521,158.65486 C 78.77884,155.9551 75.64005,151.90546 73.75081,146.50596 L 34.26951,34.742959 L 57.95851,34.742959 L 93.59281,136.58496 C 94.402341,139.01455 95.88731,140.22934 98.04672,140.22934 L 98.857244,140.22934 L 98.8571,140.229 z"
           id="path3573" />
        <polygon
           style="fill:#1f1a17;fill-rule:nonzero"
           id="1"
           class="fil1"
           points="175.998,34.7423 198.27,34.7423 198.27,161.893 175.998,161.893 175.998,34.7423 " />
        <path
           style="fill:#1f1a17;fill-rule:nonzero"
           id="12"
           class="fil1"
           d="M 238.763,87.5873 L 283.1034,87.5873 C 287.28813,87.5873 290.76365,86.06856 293.531,83.03108 C 296.29731,79.99459 297.68096,76.38399 297.68096,72.19928 C 297.68096,70.17496 297.31046,68.25095 296.56748,66.42926 C 295.82549,64.60657 294.77956,62.98751 293.42968,61.57009 C 292.0798,60.15267 290.56106,59.03919 288.87346,58.22866 C 287.18685,57.419129 285.3304,57.01387 283.30607,57.01387 L 238.76297,57.01387 L 238.76297,87.58737 L 238.763,87.5873 z M 279.8643,34.7423 C 286.88288,34.7423 292.9231,35.721684 297.9849,37.67846 C 303.0467,39.63524 307.19766,42.335 310.4368,45.77675 C 313.67592,49.21949 316.07173,53.20159 317.62424,57.72305 C 319.17675,62.2445 319.95251,67.0699 319.95251,72.19925 C 319.95251,76.65415 319.2443,81.07429 317.82687,85.46165 C 316.40945,89.84802 314.08118,93.79634 310.84206,97.30565 C 307.60195,100.81494 303.45199,103.64979 298.39016,105.8092 C 293.32836,107.96861 287.15306,109.04931 279.86436,109.04931 L 269.53816,109.04931 L 320.96576,137.79911 L 320.96576,164.52551 L 238.76306,114.51541 L 238.76306,161.89331 L 216.49156,161.89331 L 216.49156,34.74231 L 279.86446,34.74231 L 279.8643,34.7423 z" />
        <polygon
           style="fill:#1f1a17;fill-rule:nonzero"
           id="123"
           class="fil1"
           points="383.529,161.893 361.257,161.893 361.257,57.0138 329.874,57.0138 329.874,34.7423 413.089,34.7423 413.089,57.0138 383.529,57.0138 383.529,161.893 " />
        <path
           style="fill:#1f1a17;fill-rule:nonzero"
           id="1234"
           class="fil1"
           d="M 534.166,114.718 C 534.166,122.00676 533.05153,128.5873 530.82457,134.4586 C 528.59761,140.32993 525.29095,145.3917 520.90359,149.644 C 516.51722,153.89528 510.98261,157.16916 504.30179,159.46366 C 497.61993,161.75816 489.82459,162.90541 480.91579,162.90541 C 472.27715,162.90541 464.61789,161.72439 457.93599,159.36235 C 451.25413,157.00031 445.65299,153.72742 441.13049,149.54269 C 436.60904,145.35796 433.16729,140.32993 430.80529,134.45859 C 428.44325,128.58726 427.26223,122.07429 427.26223,114.92059 L 427.26223,34.74229 L 449.53373,34.74229 L 449.53373,114.51539 C 449.53373,122.20941 452.33381,128.48599 457.93597,133.34519 C 463.53713,138.20436 471.26497,140.63395 481.11837,140.63395 L 481.72626,140.63395 C 491.84986,140.63395 499.40876,138.20436 504.40306,133.34519 C 509.39732,128.48602 511.89445,122.20939 511.89445,114.51539 L 511.89445,34.74229 L 534.16595,34.74229 L 534.16595,114.71799 L 534.166,114.718 z" />
        <path
           style="fill:#1f1a17;fill-rule:nonzero"
           id="12345"
           class="fil1"
           d="M 611.306,57.0138 C 609.28168,57.0138 607.79671,58.22859 606.85209,60.65917 L 585.18749,121.39977 L 637.82989,121.39977 L 616.57049,60.86077 C 616.03014,59.3768 615.3557,58.36364 614.54617,57.82428 C 613.73565,57.28393 612.92611,57.013756 612.11658,57.013756 L 611.30606,57.013756 L 611.306,57.0138 z M 577.4934,143.6714 L 571.2178,161.8933 L 547.5288,161.8933 L 587.0101,50.9403 C 589.03442,45.2716 592.20699,41.15441 596.52581,38.5897 C 600.84563,36.02503 605.90743,34.67515 611.71121,34.54105 C 617.37991,34.54105 622.44171,35.88994 626.89661,38.5897 C 631.35052,41.28946 634.52309,45.40665 636.41232,50.9403 L 675.89362,161.8933 L 652.20462,161.8933 L 645.72639,143.6714 L 577.49339,143.6714 L 577.4934,143.6714 z" />
        <path
           style="fill:#1f1a17;fill-rule:nonzero"
           id="123456"
           class="fil1"
           d="M 735.421,161.893 C 726.10692,161.893 717.9411,160.61066 710.9215,158.04599 C 703.90292,155.48132 698.0654,151.80317 693.4078,147.01149 C 688.75126,142.21986 685.24197,136.44889 682.8799,129.70039 C 680.51786,122.95099 679.33684,115.32449 679.33684,106.82099 L 679.33684,34.74189 L 701.60834,34.74189 L 701.60834,107.02359 C 701.60834,117.28229 704.50974,125.27929 710.31452,131.01649 C 716.11831,136.75274 724.28412,139.62136 734.81302,139.62136 L 773.48472,139.62136 L 773.48472,161.89286 L 735.42092,161.89286 L 735.421,161.893 z" />
        <path
           style="fill:#ffffff;fill-rule:nonzero"
           id="1234567"
           class="fil2"
           d="M 811.954,139.622 L 847.5883,139.622 C 857.7119,139.622 865.2371,136.2478 870.1638,129.4984 C 875.09052,122.74999 877.55387,112.2211 877.55387,97.9138 C 877.55387,70.647 867.63289,57.0141 847.79097,57.0141 L 811.95407,57.0141 L 811.95407,139.622 L 811.954,139.622 z M 842.1212,34.743 C 880.5903,34.743 899.8254,55.8673 899.8254,98.1159 L 899.8254,98.723793 C 899.42014,140.83729 880.1185,161.89399 841.9196,161.89399 L 789.6825,161.89399 L 789.6825,34.742993 L 842.1212,34.742993 L 842.1212,34.743 z" />
        <path
           style="fill:#ffffff;fill-rule:nonzero"
           id="12345678"
           class="fil2"
           d="M 914.2,139.622 L 948.8221,139.622 C 959.351,139.622 967.5168,136.75338 973.3216,131.01713 C 979.12539,125.27989 982.02778,117.28293 982.02778,107.02423 L 982.02778,34.74253 L 1004.2993,34.74253 L 1004.2993,106.82163 C 1004.2993,115.32518 1003.1183,122.95163 1000.7562,129.70103 C 998.39418,136.44944 994.88389,142.22043 990.22732,147.01213 C 985.57078,151.80376 979.73322,155.48191 972.71362,158.04663 C 965.69504,160.6113 957.52822,161.89364 948.21512,161.89364 L 914.19992,161.89364 L 914.19992,139.62214 L 914.2,139.622 z" />
        <path
           style="fill:none;fill-rule:nonzero;stroke:#1f1a17;stroke-width:0.75688702"
           id="123456789"
           class="fil3 str1"
           d="M 98.8571,140.229 C 99.666631,140.229 100.47616,139.95982 101.28669,139.41947 C 102.09622,138.88011 102.77066,137.86696 103.31101,136.38298 L 138.94531,34.742979 L 162.63431,34.742979 L 123.15301,146.50598 C 121.26377,152.04059 118.12498,156.124 113.73861,158.75618 C 109.35125,161.3874 104.25567,162.70351 98.45191,162.70351 C 92.64812,162.70351 87.55251,161.35363 83.16521,158.65486 C 78.77884,155.9551 75.64005,151.90546 73.75081,146.50596 L 34.26951,34.742959 L 57.95851,34.742959 L 93.59281,136.58496 C 94.402341,139.01455 95.88731,140.22934 98.04672,140.22934 L 98.857244,140.22934 L 98.8571,140.229 z" />
        <polygon
           style="fill:none;fill-rule:nonzero;stroke:#1f1a17;stroke-width:0.75688702"
           id="12345678910"
           class="fil3 str1"
           points="175.998,34.7423 198.27,34.7423 198.27,161.893 175.998,161.893 175.998,34.7423 " />
        <path
           style="fill:none;fill-rule:nonzero;stroke:#1f1a17;stroke-width:0.75688702"
           id="1234567891011"
           class="fil3 str1"
           d="M 238.763,87.5873 L 283.1034,87.5873 C 287.28813,87.5873 290.76365,86.06856 293.531,83.03108 C 296.29731,79.99459 297.68096,76.38399 297.68096,72.19928 C 297.68096,70.17496 297.31046,68.25095 296.56748,66.42926 C 295.82549,64.60657 294.77956,62.98751 293.42968,61.57009 C 292.0798,60.15267 290.56106,59.03919 288.87346,58.22866 C 287.18685,57.419129 285.3304,57.01387 283.30607,57.01387 L 238.76297,57.01387 L 238.76297,87.58737 L 238.763,87.5873 z M 279.8643,34.7423 C 286.88288,34.7423 292.9231,35.721684 297.9849,37.67846 C 303.0467,39.63524 307.19766,42.335 310.4368,45.77675 C 313.67592,49.21949 316.07173,53.20159 317.62424,57.72305 C 319.17675,62.2445 319.95251,67.0699 319.95251,72.19925 C 319.95251,76.65415 319.2443,81.07429 317.82687,85.46165 C 316.40945,89.84802 314.08118,93.79634 310.84206,97.30565 C 307.60195,100.81494 303.45199,103.64979 298.39016,105.8092 C 293.32836,107.96861 287.15306,109.04931 279.86436,109.04931 L 269.53816,109.04931 L 320.96576,137.79911 L 320.96576,164.52551 L 238.76306,114.51541 L 238.76306,161.89331 L 216.49156,161.89331 L 216.49156,34.74231 L 279.86446,34.74231 L 279.8643,34.7423 z" />
        <polygon
           style="fill:none;fill-rule:nonzero;stroke:#1f1a17;stroke-width:0.75688702"
           id="123456789101112"
           class="fil3 str1"
           points="383.529,161.893 361.257,161.893 361.257,57.0138 329.874,57.0138 329.874,34.7423 413.089,34.7423 413.089,57.0138 383.529,57.0138 383.529,161.893 " />
        <path
           style="fill:none;fill-rule:nonzero;stroke:#1f1a17;stroke-width:0.75688702"
           id="12345678910111213"
           class="fil3 str1"
           d="M 534.166,114.718 C 534.166,122.00676 533.05153,128.5873 530.82457,134.4586 C 528.59761,140.32993 525.29095,145.3917 520.90359,149.644 C 516.51722,153.89528 510.98261,157.16916 504.30179,159.46366 C 497.61993,161.75816 489.82459,162.90541 480.91579,162.90541 C 472.27715,162.90541 464.61789,161.72439 457.93599,159.36235 C 451.25413,157.00031 445.65299,153.72742 441.13049,149.54269 C 436.60904,145.35796 433.16729,140.32993 430.80529,134.45859 C 428.44325,128.58726 427.26223,122.07429 427.26223,114.92059 L 427.26223,34.74229 L 449.53373,34.74229 L 449.53373,114.51539 C 449.53373,122.20941 452.33381,128.48599 457.93597,133.34519 C 463.53713,138.20436 471.26497,140.63395 481.11837,140.63395 L 481.72626,140.63395 C 491.84986,140.63395 499.40876,138.20436 504.40306,133.34519 C 509.39732,128.48602 511.89445,122.20939 511.89445,114.51539 L 511.89445,34.74229 L 534.16595,34.74229 L 534.16595,114.71799 L 534.166,114.718 z" />
        <path
           style="fill:none;fill-rule:nonzero;stroke:#1f1a17;stroke-width:0.75688702"
           id="1234567891011121314"
           class="fil3 str1"
           d="M 611.306,57.0138 C 609.28168,57.0138 607.79671,58.22859 606.85209,60.65917 L 585.18749,121.39977 L 637.82989,121.39977 L 616.57049,60.86077 C 616.03014,59.3768 615.3557,58.36364 614.54617,57.82428 C 613.73565,57.28393 612.92611,57.013756 612.11658,57.013756 L 611.30606,57.013756 L 611.306,57.0138 z M 577.4934,143.6714 L 571.2178,161.8933 L 547.5288,161.8933 L 587.0101,50.9403 C 589.03442,45.2716 592.20699,41.15441 596.52581,38.5897 C 600.84563,36.02503 605.90743,34.67515 611.71121,34.54105 C 617.37991,34.54105 622.44171,35.88994 626.89661,38.5897 C 631.35052,41.28946 634.52309,45.40665 636.41232,50.9403 L 675.89362,161.8933 L 652.20462,161.8933 L 645.72639,143.6714 L 577.49339,143.6714 L 577.4934,143.6714 z" />
        <path
           style="fill:none;fill-rule:nonzero;stroke:#1f1a17;stroke-width:0.75688702"
           id="123456789101112131415"
           class="fil3 str1"
           d="M 735.421,161.893 C 726.10692,161.893 717.9411,160.61066 710.9215,158.04599 C 703.90292,155.48132 698.0654,151.80317 693.4078,147.01149 C 688.75126,142.21986 685.24197,136.44889 682.8799,129.70039 C 680.51786,122.95099 679.33684,115.32449 679.33684,106.82099 L 679.33684,34.74189 L 701.60834,34.74189 L 701.60834,107.02359 C 701.60834,117.28229 704.50974,125.27929 710.31452,131.01649 C 716.11831,136.75274 724.28412,139.62136 734.81302,139.62136 L 773.48472,139.62136 L 773.48472,161.89286 L 735.42092,161.89286 L 735.421,161.893 z" />
        <path
           style="fill:none;fill-rule:nonzero;stroke:#ffffff;stroke-width:0.75688702"
           id="12345678910111213141516"
           class="fil3 str2"
           d="M 811.954,139.622 L 847.5883,139.622 C 857.7119,139.622 865.2371,136.2478 870.1638,129.4984 C 875.09052,122.74999 877.55387,112.2211 877.55387,97.9138 C 877.55387,70.647 867.63289,57.0141 847.79097,57.0141 L 811.95407,57.0141 L 811.95407,139.622 L 811.954,139.622 z M 842.1212,34.743 C 880.5903,34.743 899.8254,55.8673 899.8254,98.1159 L 899.8254,98.723793 C 899.42014,140.83729 880.1185,161.89399 841.9196,161.89399 L 789.6825,161.89399 L 789.6825,34.742993 L 842.1212,34.742993 L 842.1212,34.743 z" />
        <path
           style="fill:none;fill-rule:nonzero;stroke:#ffffff;stroke-width:0.75688702"
           id="1234567891011121314151617"
           class="fil3 str2"
           d="M 914.2,139.622 L 948.8221,139.622 C 959.351,139.622 967.5168,136.75338 973.3216,131.01713 C 979.12539,125.27989 982.02778,117.28293 982.02778,107.02423 L 982.02778,34.74253 L 1004.2993,34.74253 L 1004.2993,106.82163 C 1004.2993,115.32518 1003.1183,122.95163 1000.7562,129.70103 C 998.39418,136.44944 994.88389,142.22043 990.22732,147.01213 C 985.57078,151.80376 979.73322,155.48191 972.71362,158.04663 C 965.69504,160.6113 957.52822,161.89364 948.21512,161.89364 L 914.19992,161.89364 L 914.19992,139.62214 L 914.2,139.622 z" />
      </g>
      <g
         transform="matrix(0.2901655,0,0,0.2901655,15.633167,290.40615)"
         id="g3658">
        <metadata
           id="metadata3660" />
        <rect
           style="fill:#da251d;stroke:#1f1a17;stroke-width:21.72050095"
           class="fil0 str0"
           x="10.8602"
           y="10.8179"
           width="1250.11"
           height="199.53101"
           id="rect3630" />
        <path
           style="fill:#1f1a17;fill-rule:nonzero"
           class="fil1"
           d="M 162.986,136.233 C 162.986,149.6628 159.11214,159.8095 151.3644,166.6721 C 143.6156,173.5347 132.8053,176.9655 118.9335,176.9655 L 47.6511,176.9655 L 47.6511,152.6146 L 123.5817,152.6146 C 127.86173,152.6146 131.44019,150.99099 134.3182,147.74486 C 137.19617,144.49764 138.63515,140.51301 138.63515,135.78986 C 138.63515,131.36322 137.19617,127.48827 134.3182,124.16826 C 131.44023,120.84719 127.86177,119.18774 123.5817,119.18774 L 84.399,119.18774 C 76.28204,119.18774 69.4564,117.96922 63.922,115.53435 C 58.38761,113.09948 53.886,109.96303 50.4183,106.1261 C 46.95062,102.28917 44.44081,97.97221 42.89214,93.1763 C 41.34238,88.37932 40.56696,83.62035 40.56696,78.8972 C 40.56696,73.28896 41.379308,68.013 43.00292,63.0695 C 44.62544,58.12591 47.20801,53.77203 50.75063,50.0079 C 54.29216,46.24482 58.83067,43.293 64.36503,41.15353 C 69.89942,39.01406 76.57743,37.94324 84.39893,37.94324 L 153.68853,37.94324 L 153.68853,62.29414 L 80.63583,62.29414 C 76.3558,62.29414 72.66657,63.91775 69.56703,67.16497 C 66.46751,70.4111 64.91775,74.17527 64.91775,78.45527 C 64.91775,83.02961 66.43058,86.90347 69.45625,90.07687 C 72.48192,93.25024 76.28193,94.83584 80.85735,94.83584 L 119.37545,94.83584 C 132.80525,94.83584 143.43205,98.26768 151.25355,105.13024 C 159.07511,111.99284 162.98585,122.06464 162.98585,135.34784 L 162.98585,136.23295 L 162.986,136.233 z"
           id="path3632" />
        <path
           style="fill:#1f1a17;fill-rule:nonzero"
           id="path3664"
           class="fil1"
           d="M 242.017,176.966 C 199.9563,176.966 178.9254,153.8695 178.9254,107.6764 L 178.9254,107.01284 C 179.3685,60.966438 200.4722,37.943738 242.2386,37.943738 L 292.9321,37.943738 L 292.9321,62.294638 L 236.0395,62.294638 C 224.9707,62.294638 216.743,65.984958 211.3563,73.363438 C 205.96961,80.742988 203.27626,92.253738 203.27626,107.89804 C 203.27626,137.70944 214.12346,152.61514 235.81796,152.61514 L 292.71056,152.61514 L 292.71056,176.96604 L 242.01706,176.96604 L 242.017,176.966 z" />
        <path
           style="fill:#1f1a17;fill-rule:nonzero"
           id="path3666"
           class="fil1"
           d="M 311.971,135.348 C 311.971,122.0648 315.88178,111.993 323.7033,105.1304 C 331.52486,98.2678 342.1505,94.836 355.5803,94.836 L 384.802,94.836 C 389.37743,94.836 393.17744,93.2504 396.202,90.07703 C 399.22767,86.90366 400.7405,83.0298 400.7405,78.45543 C 400.7405,74.1754 399.19074,70.41123 396.09231,67.16513 C 392.99279,63.91791 389.30356,62.2943 385.02351,62.2943 L 311.97081,62.2943 L 311.97081,37.9434 L 381.25931,37.9434 C 388.93426,37.9434 395.53841,39.01422 401.07281,41.15369 C 406.6072,43.29316 411.14461,46.24498 414.68721,50.00806 C 418.22874,53.77223 420.84824,58.12611 422.5457,63.06966 C 424.24316,68.01325 425.09135,73.28916 425.09135,78.89736 C 425.09135,83.76819 424.31701,88.60101 422.76725,93.39796 C 421.21749,98.19385 418.67184,102.51081 415.13031,106.34776 C 411.58769,110.18469 407.04919,113.28421 401.51591,115.64523 C 395.98152,118.00625 389.22971,119.18785 381.25931,119.18785 L 353.14531,119.18785 L 428.41241,152.17155 L 428.41241,179.17885 L 336.32171,137.78275 L 336.32171,176.96545 L 311.97081,176.96545 L 311.97081,135.34785 L 311.971,135.348 z" />
        <path
           style="fill:#1f1a17;fill-rule:nonzero"
           id="path3668"
           class="fil1"
           d="M 495.046,62.2945 C 483.9772,62.2945 475.7495,65.98482 470.3628,73.3633 C 464.97611,80.74285 462.28276,92.2536 462.28276,107.8979 C 462.28276,137.7093 473.12996,152.615 494.82446,152.615 L 518.29026,152.615 C 539.98476,152.615 550.83196,137.7093 550.83196,107.8979 C 550.83196,92.2537 548.13861,80.7429 542.75192,73.3633 C 537.36523,65.98484 529.13752,62.2945 518.06872,62.2945 L 495.04602,62.2945 L 495.046,62.2945 z M 511.8707,37.9436 C 553.636,37.9436 574.7397,60.9663 575.1828,107.0127 L 575.1828,107.67626 C 575.1828,153.86926 554.153,176.96586 512.0923,176.96586 L 501.0235,176.96586 C 458.9628,176.96586 437.9319,153.86936 437.9319,107.67626 L 437.9319,107.0127 C 438.375,60.9663 459.4787,37.9436 501.2451,37.9436 L 511.8708,37.9436 L 511.8707,37.9436 z" />
        <path
           style="fill:#1f1a17;fill-rule:nonzero"
           id="path3670"
           class="fil1"
           d="M 662.403,37.9436 C 670.37226,37.9436 677.1241,39.01442 682.6585,41.15389 C 688.19289,43.29336 692.7303,46.20826 696.2729,49.89857 C 699.81443,53.5878 702.36008,57.90476 703.90984,62.84837 C 705.4596,67.79196 706.23394,73.14177 706.23394,78.89767 C 706.23394,83.7685 705.05343,88.85979 702.69241,94.17267 C 700.33139,99.48551 696.42061,103.76554 690.96011,107.01277 C 696.27295,110.2589 700.14681,114.50201 702.58171,119.74097 C 705.01658,124.97996 706.23402,130.32977 706.23402,135.79027 C 706.23402,140.9565 705.45968,146.01087 703.90992,150.95447 C 702.36016,155.89915 699.85144,160.28887 696.38376,164.12577 C 692.91499,167.96379 688.37757,171.06222 682.76936,173.42433 C 677.16112,175.78535 670.37236,176.96586 662.40306,176.96586 L 593.11346,176.96586 L 593.11346,152.61496 L 665.94456,152.61496 C 670.66769,152.61496 674.50462,151.02828 677.45646,147.85491 C 680.40719,144.68263 681.8831,140.51337 681.8831,135.34821 C 681.8831,131.06818 680.33334,127.3051 677.23491,124.05791 C 674.13539,120.81069 670.44616,119.18817 666.16611,119.18817 L 593.11341,119.18817 L 593.11341,94.83617 L 665.94451,94.83617 C 670.66764,94.83617 674.50457,93.25057 677.45641,90.0772 C 680.40714,86.90383 681.88305,83.02997 681.88305,78.4556 C 681.88305,74.17557 680.33329,70.4114 677.23486,67.1653 C 674.13534,63.91808 670.44611,62.29447 666.16606,62.29447 L 593.11336,62.29447 L 593.11336,37.94357 L 662.40296,37.94357 L 662.403,37.9436 z" />
        <path
           style="fill:#1f1a17;fill-rule:nonzero"
           id="path3672"
           class="fil1"
           d="M 793.235,37.9436 C 801.20426,37.9436 807.9561,39.01442 813.4905,41.15389 C 819.02489,43.29336 823.5623,46.20826 827.1049,49.89857 C 830.64643,53.5878 833.19208,57.90476 834.74184,62.84837 C 836.2916,67.79196 837.06594,73.14177 837.06594,78.89767 C 837.06594,83.7685 835.88543,88.85979 833.52441,94.17267 C 831.16339,99.48551 827.25261,103.76554 821.79211,107.01277 C 827.10495,110.2589 830.97881,114.50201 833.41371,119.74097 C 835.84858,124.97996 837.06602,130.32977 837.06602,135.79027 C 837.06602,140.9565 836.29168,146.01087 834.74192,150.95447 C 833.19216,155.89915 830.68344,160.28887 827.21576,164.12577 C 823.74699,167.96379 819.20957,171.06222 813.60136,173.42433 C 807.99312,175.78535 801.20436,176.96586 793.23506,176.96586 L 723.94546,176.96586 L 723.94546,152.61496 L 796.77656,152.61496 C 801.49969,152.61496 805.33662,151.02828 808.28846,147.85491 C 811.23919,144.68263 812.7151,140.51337 812.7151,135.34821 C 812.7151,131.06818 811.16534,127.3051 808.06691,124.05791 C 804.96739,120.81069 801.27816,119.18817 796.99811,119.18817 L 723.94541,119.18817 L 723.94541,94.83617 L 796.77651,94.83617 C 801.49964,94.83617 805.33657,93.25057 808.28841,90.0772 C 811.23914,86.90383 812.71505,83.02997 812.71505,78.4556 C 812.71505,74.17557 811.16529,70.4114 808.06686,67.1653 C 804.96734,63.91808 801.27811,62.29447 796.99806,62.29447 L 723.94536,62.29447 L 723.94536,37.94357 L 793.23496,37.94357 L 793.235,37.9436 z" />
        <path
           style="fill:#1f1a17;fill-rule:nonzero"
           id="path3674"
           class="fil1"
           d="M 916.097,176.966 C 905.9133,176.966 896.9851,175.56394 889.3102,172.75982 C 881.63634,169.9557 875.2538,165.93414 870.1614,160.69512 C 865.07011,155.45613 861.23318,149.14632 858.6506,141.76782 C 856.06803,134.38827 854.77674,126.04972 854.77674,116.75232 L 854.77674,37.94372 L 879.12764,37.94372 L 879.12764,116.97382 C 879.12764,128.19032 882.29992,136.93392 888.64666,143.20682 C 894.99231,149.47862 903.92056,152.61507 915.43246,152.61507 L 957.71476,152.61507 L 957.71476,176.96597 L 916.09716,176.96597 L 916.097,176.966 z" />
        <path
           style="fill:#1f1a17;fill-rule:nonzero"
           id="path3676"
           class="fil1"
           d="M 1086.33,62.2945 L 1013.2773,62.2945 C 1008.9973,62.2945 1005.308,63.91811 1002.2085,67.16533 C 999.10898,70.41146 997.55922,74.17563 997.55922,78.45563 C 997.55922,83.02997 999.03513,86.90383 1001.9869,90.07723 C 1004.9388,93.2506 1008.7757,94.8362 1013.4988,94.8362 L 1086.33,94.8362 L 1086.33,119.1882 L 1013.2773,119.1882 C 1008.9972,119.1882 1005.308,120.81072 1002.2085,124.05794 C 999.10893,127.30516 997.55917,131.06824 997.55917,135.34824 C 997.55917,140.51338 999.03508,144.68264 1001.9869,147.85494 C 1004.9387,151.02831 1008.7757,152.61499 1013.4988,152.61499 L 1086.3299,152.61499 L 1086.3299,176.96589 L 1017.0403,176.96589 C 1008.9233,176.96589 1002.0977,175.78538 996.5633,173.42436 C 991.02891,171.06225 986.5273,167.92689 983.0596,164.01611 C 979.59192,160.10424 977.08211,155.71452 975.53344,150.84371 C 973.98368,145.97397 973.20826,140.95653 973.20826,135.79031 C 973.20826,130.32977 974.38877,124.98001 976.75088,119.74101 C 979.1119,114.50202 982.94883,110.25891 988.26168,107.01281 C 982.80114,103.76559 978.92728,99.48556 976.64008,94.17271 C 974.35182,88.85987 973.20824,83.76861 973.20824,78.89771 C 973.20824,72.99516 974.09444,67.53461 975.86466,62.51611 C 977.63597,57.49867 980.29239,53.14479 983.83392,49.45551 C 987.37654,45.76628 991.91504,42.92523 997.44832,40.93237 C 1002.9827,38.9406 1009.5141,37.94363 1017.0402,37.94363 L 1086.3298,37.94363 L 1086.3298,62.29453 L 1086.33,62.2945 z" />
        <path
           style="fill:#1f1a17;fill-rule:nonzero"
           id="path3678"
           class="fil1"
           d="M 1106.48,135.348 C 1106.48,122.0648 1110.3908,111.993 1118.2123,105.1304 C 1126.0339,98.2678 1136.6595,94.836 1150.0893,94.836 L 1179.311,94.836 C 1183.8864,94.836 1187.6864,93.2504 1190.711,90.07703 C 1193.7367,86.90366 1195.2495,83.0298 1195.2495,78.45543 C 1195.2495,74.1754 1193.6997,70.41123 1190.6013,67.16513 C 1187.5018,63.91791 1183.8126,62.2943 1179.5325,62.2943 L 1106.4798,62.2943 L 1106.4798,37.9434 L 1175.7683,37.9434 C 1183.4433,37.9434 1190.0474,39.01422 1195.5818,41.15369 C 1201.1162,43.29316 1205.6536,46.24498 1209.1962,50.00806 C 1212.7377,53.77223 1215.3572,58.12611 1217.0547,63.06966 C 1218.7522,68.01325 1219.6003,73.28916 1219.6003,78.89736 C 1219.6003,83.76819 1218.826,88.60101 1217.2762,93.39796 C 1215.7265,98.19385 1213.1808,102.51081 1209.6393,106.34776 C 1206.0967,110.18469 1201.5582,113.28421 1196.0249,115.64523 C 1190.4905,118.00625 1183.7387,119.18785 1175.7683,119.18785 L 1147.6543,119.18785 L 1222.9214,152.17155 L 1222.9214,179.17885 L 1130.8307,137.78275 L 1130.8307,176.96545 L 1106.4798,176.96545 L 1106.4798,135.34785 L 1106.48,135.348 z" />
        <path
           style="fill:none;fill-rule:nonzero;stroke:#1f1a17;stroke-width:0.82755202"
           id="path3680"
           class="fil2 str1"
           d="M 162.986,136.233 C 162.986,149.6628 159.11214,159.8095 151.3644,166.6721 C 143.6156,173.5347 132.8053,176.9655 118.9335,176.9655 L 47.6511,176.9655 L 47.6511,152.6146 L 123.5817,152.6146 C 127.86173,152.6146 131.44019,150.99099 134.3182,147.74486 C 137.19617,144.49764 138.63515,140.51301 138.63515,135.78986 C 138.63515,131.36322 137.19617,127.48827 134.3182,124.16826 C 131.44023,120.84719 127.86177,119.18774 123.5817,119.18774 L 84.399,119.18774 C 76.28204,119.18774 69.4564,117.96922 63.922,115.53435 C 58.38761,113.09948 53.886,109.96303 50.4183,106.1261 C 46.95062,102.28917 44.44081,97.97221 42.89214,93.1763 C 41.34238,88.37932 40.56696,83.62035 40.56696,78.8972 C 40.56696,73.28896 41.379308,68.013 43.00292,63.0695 C 44.62544,58.12591 47.20801,53.77203 50.75063,50.0079 C 54.29216,46.24482 58.83067,43.293 64.36503,41.15353 C 69.89942,39.01406 76.57743,37.94324 84.39893,37.94324 L 153.68853,37.94324 L 153.68853,62.29414 L 80.63583,62.29414 C 76.3558,62.29414 72.66657,63.91775 69.56703,67.16497 C 66.46751,70.4111 64.91775,74.17527 64.91775,78.45527 C 64.91775,83.02961 66.43058,86.90347 69.45625,90.07687 C 72.48192,93.25024 76.28193,94.83584 80.85735,94.83584 L 119.37545,94.83584 C 132.80525,94.83584 143.43205,98.26768 151.25355,105.13024 C 159.07511,111.99284 162.98585,122.06464 162.98585,135.34784 L 162.98585,136.23295 L 162.986,136.233 z" />
        <path
           style="fill:none;fill-rule:nonzero;stroke:#1f1a17;stroke-width:0.82755202"
           id="path3682"
           class="fil2 str1"
           d="M 242.017,176.966 C 199.9563,176.966 178.9254,153.8695 178.9254,107.6764 L 178.9254,107.01284 C 179.3685,60.966438 200.4722,37.943738 242.2386,37.943738 L 292.9321,37.943738 L 292.9321,62.294638 L 236.0395,62.294638 C 224.9707,62.294638 216.743,65.984958 211.3563,73.363438 C 205.96961,80.742988 203.27626,92.253738 203.27626,107.89804 C 203.27626,137.70944 214.12346,152.61514 235.81796,152.61514 L 292.71056,152.61514 L 292.71056,176.96604 L 242.01706,176.96604 L 242.017,176.966 z" />
        <path
           style="fill:none;fill-rule:nonzero;stroke:#1f1a17;stroke-width:0.82755202"
           id="path3684"
           class="fil2 str1"
           d="M 311.971,135.348 C 311.971,122.0648 315.88178,111.993 323.7033,105.1304 C 331.52486,98.2678 342.1505,94.836 355.5803,94.836 L 384.802,94.836 C 389.37743,94.836 393.17744,93.2504 396.202,90.07703 C 399.22767,86.90366 400.7405,83.0298 400.7405,78.45543 C 400.7405,74.1754 399.19074,70.41123 396.09231,67.16513 C 392.99279,63.91791 389.30356,62.2943 385.02351,62.2943 L 311.97081,62.2943 L 311.97081,37.9434 L 381.25931,37.9434 C 388.93426,37.9434 395.53841,39.01422 401.07281,41.15369 C 406.6072,43.29316 411.14461,46.24498 414.68721,50.00806 C 418.22874,53.77223 420.84824,58.12611 422.5457,63.06966 C 424.24316,68.01325 425.09135,73.28916 425.09135,78.89736 C 425.09135,83.76819 424.31701,88.60101 422.76725,93.39796 C 421.21749,98.19385 418.67184,102.51081 415.13031,106.34776 C 411.58769,110.18469 407.04919,113.28421 401.51591,115.64523 C 395.98152,118.00625 389.22971,119.18785 381.25931,119.18785 L 353.14531,119.18785 L 428.41241,152.17155 L 428.41241,179.17885 L 336.32171,137.78275 L 336.32171,176.96545 L 311.97081,176.96545 L 311.97081,135.34785 L 311.971,135.348 z" />
        <path
           style="fill:none;fill-rule:nonzero;stroke:#1f1a17;stroke-width:0.82755202"
           id="path3686"
           class="fil2 str1"
           d="M 495.046,62.2945 C 483.9772,62.2945 475.7495,65.98482 470.3628,73.3633 C 464.97611,80.74285 462.28276,92.2536 462.28276,107.8979 C 462.28276,137.7093 473.12996,152.615 494.82446,152.615 L 518.29026,152.615 C 539.98476,152.615 550.83196,137.7093 550.83196,107.8979 C 550.83196,92.2537 548.13861,80.7429 542.75192,73.3633 C 537.36523,65.98484 529.13752,62.2945 518.06872,62.2945 L 495.04602,62.2945 L 495.046,62.2945 z M 511.8707,37.9436 C 553.636,37.9436 574.7397,60.9663 575.1828,107.0127 L 575.1828,107.67626 C 575.1828,153.86926 554.153,176.96586 512.0923,176.96586 L 501.0235,176.96586 C 458.9628,176.96586 437.9319,153.86936 437.9319,107.67626 L 437.9319,107.0127 C 438.375,60.9663 459.4787,37.9436 501.2451,37.9436 L 511.8708,37.9436 L 511.8707,37.9436 z" />
        <path
           style="fill:none;fill-rule:nonzero;stroke:#1f1a17;stroke-width:0.82755202"
           id="path3688"
           class="fil2 str1"
           d="M 662.403,37.9436 C 670.37226,37.9436 677.1241,39.01442 682.6585,41.15389 C 688.19289,43.29336 692.7303,46.20826 696.2729,49.89857 C 699.81443,53.5878 702.36008,57.90476 703.90984,62.84837 C 705.4596,67.79196 706.23394,73.14177 706.23394,78.89767 C 706.23394,83.7685 705.05343,88.85979 702.69241,94.17267 C 700.33139,99.48551 696.42061,103.76554 690.96011,107.01277 C 696.27295,110.2589 700.14681,114.50201 702.58171,119.74097 C 705.01658,124.97996 706.23402,130.32977 706.23402,135.79027 C 706.23402,140.9565 705.45968,146.01087 703.90992,150.95447 C 702.36016,155.89915 699.85144,160.28887 696.38376,164.12577 C 692.91499,167.96379 688.37757,171.06222 682.76936,173.42433 C 677.16112,175.78535 670.37236,176.96586 662.40306,176.96586 L 593.11346,176.96586 L 593.11346,152.61496 L 665.94456,152.61496 C 670.66769,152.61496 674.50462,151.02828 677.45646,147.85491 C 680.40719,144.68263 681.8831,140.51337 681.8831,135.34821 C 681.8831,131.06818 680.33334,127.3051 677.23491,124.05791 C 674.13539,120.81069 670.44616,119.18817 666.16611,119.18817 L 593.11341,119.18817 L 593.11341,94.83617 L 665.94451,94.83617 C 670.66764,94.83617 674.50457,93.25057 677.45641,90.0772 C 680.40714,86.90383 681.88305,83.02997 681.88305,78.4556 C 681.88305,74.17557 680.33329,70.4114 677.23486,67.1653 C 674.13534,63.91808 670.44611,62.29447 666.16606,62.29447 L 593.11336,62.29447 L 593.11336,37.94357 L 662.40296,37.94357 L 662.403,37.9436 z" />
        <path
           style="fill:none;fill-rule:nonzero;stroke:#1f1a17;stroke-width:0.82755202"
           id="path3690"
           class="fil2 str1"
           d="M 793.235,37.9436 C 801.20426,37.9436 807.9561,39.01442 813.4905,41.15389 C 819.02489,43.29336 823.5623,46.20826 827.1049,49.89857 C 830.64643,53.5878 833.19208,57.90476 834.74184,62.84837 C 836.2916,67.79196 837.06594,73.14177 837.06594,78.89767 C 837.06594,83.7685 835.88543,88.85979 833.52441,94.17267 C 831.16339,99.48551 827.25261,103.76554 821.79211,107.01277 C 827.10495,110.2589 830.97881,114.50201 833.41371,119.74097 C 835.84858,124.97996 837.06602,130.32977 837.06602,135.79027 C 837.06602,140.9565 836.29168,146.01087 834.74192,150.95447 C 833.19216,155.89915 830.68344,160.28887 827.21576,164.12577 C 823.74699,167.96379 819.20957,171.06222 813.60136,173.42433 C 807.99312,175.78535 801.20436,176.96586 793.23506,176.96586 L 723.94546,176.96586 L 723.94546,152.61496 L 796.77656,152.61496 C 801.49969,152.61496 805.33662,151.02828 808.28846,147.85491 C 811.23919,144.68263 812.7151,140.51337 812.7151,135.34821 C 812.7151,131.06818 811.16534,127.3051 808.06691,124.05791 C 804.96739,120.81069 801.27816,119.18817 796.99811,119.18817 L 723.94541,119.18817 L 723.94541,94.83617 L 796.77651,94.83617 C 801.49964,94.83617 805.33657,93.25057 808.28841,90.0772 C 811.23914,86.90383 812.71505,83.02997 812.71505,78.4556 C 812.71505,74.17557 811.16529,70.4114 808.06686,67.1653 C 804.96734,63.91808 801.27811,62.29447 796.99806,62.29447 L 723.94536,62.29447 L 723.94536,37.94357 L 793.23496,37.94357 L 793.235,37.9436 z" />
        <path
           style="fill:none;fill-rule:nonzero;stroke:#1f1a17;stroke-width:0.82755202"
           id="path3692"
           class="fil2 str1"
           d="M 916.097,176.966 C 905.9133,176.966 896.9851,175.56394 889.3102,172.75982 C 881.63634,169.9557 875.2538,165.93414 870.1614,160.69512 C 865.07011,155.45613 861.23318,149.14632 858.6506,141.76782 C 856.06803,134.38827 854.77674,126.04972 854.77674,116.75232 L 854.77674,37.94372 L 879.12764,37.94372 L 879.12764,116.97382 C 879.12764,128.19032 882.29992,136.93392 888.64666,143.20682 C 894.99231,149.47862 903.92056,152.61507 915.43246,152.61507 L 957.71476,152.61507 L 957.71476,176.96597 L 916.09716,176.96597 L 916.097,176.966 z" />
        <path
           style="fill:none;fill-rule:nonzero;stroke:#1f1a17;stroke-width:0.82755202"
           id="path3694"
           class="fil2 str1"
           d="M 1086.33,62.2945 L 1013.2773,62.2945 C 1008.9973,62.2945 1005.308,63.91811 1002.2085,67.16533 C 999.10898,70.41146 997.55922,74.17563 997.55922,78.45563 C 997.55922,83.02997 999.03513,86.90383 1001.9869,90.07723 C 1004.9388,93.2506 1008.7757,94.8362 1013.4988,94.8362 L 1086.33,94.8362 L 1086.33,119.1882 L 1013.2773,119.1882 C 1008.9972,119.1882 1005.308,120.81072 1002.2085,124.05794 C 999.10893,127.30516 997.55917,131.06824 997.55917,135.34824 C 997.55917,140.51338 999.03508,144.68264 1001.9869,147.85494 C 1004.9387,151.02831 1008.7757,152.61499 1013.4988,152.61499 L 1086.3299,152.61499 L 1086.3299,176.96589 L 1017.0403,176.96589 C 1008.9233,176.96589 1002.0977,175.78538 996.5633,173.42436 C 991.02891,171.06225 986.5273,167.92689 983.0596,164.01611 C 979.59192,160.10424 977.08211,155.71452 975.53344,150.84371 C 973.98368,145.97397 973.20826,140.95653 973.20826,135.79031 C 973.20826,130.32977 974.38877,124.98001 976.75088,119.74101 C 979.1119,114.50202 982.94883,110.25891 988.26168,107.01281 C 982.80114,103.76559 978.92728,99.48556 976.64008,94.17271 C 974.35182,88.85987 973.20824,83.76861 973.20824,78.89771 C 973.20824,72.99516 974.09444,67.53461 975.86466,62.51611 C 977.63597,57.49867 980.29239,53.14479 983.83392,49.45551 C 987.37654,45.76628 991.91504,42.92523 997.44832,40.93237 C 1002.9827,38.9406 1009.5141,37.94363 1017.0402,37.94363 L 1086.3298,37.94363 L 1086.3298,62.29453 L 1086.33,62.2945 z" />
        <path
           style="fill:none;fill-rule:nonzero;stroke:#1f1a17;stroke-width:0.82755202"
           id="path3696"
           class="fil2 str1"
           d="M 1106.48,135.348 C 1106.48,122.0648 1110.3908,111.993 1118.2123,105.1304 C 1126.0339,98.2678 1136.6595,94.836 1150.0893,94.836 L 1179.311,94.836 C 1183.8864,94.836 1187.6864,93.2504 1190.711,90.07703 C 1193.7367,86.90366 1195.2495,83.0298 1195.2495,78.45543 C 1195.2495,74.1754 1193.6997,70.41123 1190.6013,67.16513 C 1187.5018,63.91791 1183.8126,62.2943 1179.5325,62.2943 L 1106.4798,62.2943 L 1106.4798,37.9434 L 1175.7683,37.9434 C 1183.4433,37.9434 1190.0474,39.01422 1195.5818,41.15369 C 1201.1162,43.29316 1205.6536,46.24498 1209.1962,50.00806 C 1212.7377,53.77223 1215.3572,58.12611 1217.0547,63.06966 C 1218.7522,68.01325 1219.6003,73.28916 1219.6003,78.89736 C 1219.6003,83.76819 1218.826,88.60101 1217.2762,93.39796 C 1215.7265,98.19385 1213.1808,102.51081 1209.6393,106.34776 C 1206.0967,110.18469 1201.5582,113.28421 1196.0249,115.64523 C 1190.4905,118.00625 1183.7387,119.18785 1175.7683,119.18785 L 1147.6543,119.18785 L 1222.9214,152.17155 L 1222.9214,179.17885 L 1130.8307,137.78275 L 1130.8307,176.96545 L 1106.4798,176.96545 L 1106.4798,135.34785 L 1106.48,135.348 z" />
      </g>
    </g>
    <g
       inkscape:export-ydpi="25.445969"
       inkscape:export-xdpi="25.445969"
       inkscape:export-filename="D:\Files\Files\Programmering\Workspace\VirtualDJScrobbler\src\main\resources\poweredby.png"
       id="Layer_x0020_1"
       transform="translate(946.1939,902.24513)"
       style="fill:#d40000">
  <metadata
   id="CorelCorpID_0Corel-Layer" />

  <path
   id="path10"
   d="M 34.6386,27.114 L 34.001953,25.64178 L 28.528863,12.62018 C 26.721233,8.01145 22.215453,4.89783 17.136663,4.89783 C 10.264763,4.89783 4.689863,10.71836 4.689863,17.90163 C 4.689863,25.07835 10.264743,30.90233 17.136663,30.90233 C 21.934403,30.90233 26.096973,28.0698 28.175863,23.92284 L 30.388723,29.24985 C 27.250633,33.24946 22.476523,35.79668 17.136623,35.79668 C 7.671303,35.79668 2.3e-05,27.7904 2.3e-05,17.90158 C 2.3e-05,8.01404 7.671323,-2e-05 17.136623,-2e-05 C 24.279383,-2e-05 30.048223,3.9805 32.979923,11.04148 C 33.198678,11.589211 36.076983,18.61268 38.589713,24.59168 C 40.141353,28.28931 41.464433,30.74677 45.768443,30.89718 C 49.983533,31.046322 52.887683,28.36673 52.887683,24.97192 C 52.887683,21.6561 50.670813,20.85893 46.942383,19.56348 C 40.239983,17.2579 36.775783,14.9402 36.775783,9.38748 C 36.775783,3.97124 40.300653,0.35862 46.039753,0.35862 C 49.769663,0.35862 52.473613,2.09537 54.342213,5.55505 L 50.670843,7.5115 C 49.293343,5.49492 47.770393,4.69711 45.833233,4.69711 C 43.138983,4.6970045 41.224503,6.65335 41.224503,9.25268 C 41.224503,12.94462 44.387273,13.50068 48.806253,15.01288 C 54.757883,17.03715 57.522913,19.35054 57.522913,25.12158 C 57.522913,31.18428 52.543233,35.60198 46.039713,35.59168 C 40.046843,35.564362 36.851473,32.50569 34.638613,27.11403 L 34.6386,27.114 z"
   class="fil0"
   style="fill:#d40000" />

  <path
   id="path12"
   d="M 213.456,29.4117 L 212.45831,29.4117 L 212.45831,26.2522 L 212.4349,26.2522 L 211.33722,29.4117 L 210.62315,29.4117 L 209.52146,26.2522 L 209.4991,26.2522 L 209.4991,29.4117 L 208.50342,29.4117 L 208.50342,24.95211 L 209.91583,24.95211 L 210.98482,27.88484 L 212.05571,24.95211 L 213.456,24.95211 L 213.456,29.4117 L 213.456,29.4117 z M 207.95791,25.81585 L 206.74189,25.81585 L 206.74189,29.4117 L 205.68672,29.4117 L 205.68672,25.81585 L 204.4726,25.81585 L 204.4726,24.952116 L 207.95791,24.952116 L 207.95791,25.81585 z"
   class="fil0"
   style="fill:#d40000" />

  <path
   id="path14"
   d="M 74.7872,7.88383 L 79.08151,7.88383 C 80.80508,7.88383 81.99863,6.96546 81.99863,5.08642 C 81.998735,3.21055 80.80497,2.29017 79.08151,2.29017 L 74.7872,2.2900645 L 74.7872,7.8838245 L 74.7872,7.88383 z M 73.54175,1.18143 L 79.35648,1.18143 C 81.70509,1.18143 83.24555,2.61568 83.24555,5.08643 C 83.24555,7.55823 81.70509,8.99565 79.35648,8.99565 L 74.7872,8.9955445 L 74.7872,14.857415 L 73.54175,14.857415 L 73.54175,1.1814145 L 73.54175,1.18143 z"
   class="fil0"
   style="fill:#d40000" />

  <path
   id="path16"
   d="M 85.557,9.91464 C 85.557,12.02129 86.65869,14.12857 88.8764,14.12857 C 91.09707,14.12857 92.19728,12.02139 92.19728,9.91474 C 92.197385,7.80661 91.09707,5.7007 88.8764,5.7007 C 86.65879,5.7007 85.557,7.80661 85.557,9.91463 L 85.557,9.91464 z M 93.35234,9.91464 C 93.35234,12.75023 91.7757,15.14419 88.87641,15.14419 C 85.97817,15.14419 84.40048,12.75033 84.40048,9.91474 C 84.40048,7.07915 85.97817,4.68424 88.87641,4.68424 C 91.77581,4.6841345 93.35234,7.07915 93.35234,9.91464 z"
   class="fil0"
   style="fill:#d40000" />

  <polygon
   id="polygon18"
   points="94.1233,4.97314 95.3517,4.97314 97.7736,13.4395 97.8111,13.4395 100.122,4.97314 101.424,4.97314 103.736,13.4395 103.772,13.4395 106.194,4.97314 107.423,4.97314 104.378,14.8574 103.111,14.8574 100.782,6.54461 100.746,6.54461 98.434,14.8574 97.1696,14.8574 94.1233,4.97314 "
   class="fil0"
   style="fill:#d40000" />

  <path
   id="path20"
   d="M 115.476,9.22389 C 115.42126,7.40508 114.33814,5.70071 112.46691,5.70071 C 110.57743,5.70071 109.53291,7.42343 109.34875,9.22399 L 115.476,9.2238845 L 115.476,9.22389 z M 109.34875,10.24077 C 109.36731,12.00252 110.24803,14.12858 112.46691,14.12858 C 114.15504,14.12858 115.07256,13.09387 115.43877,11.60119 L 116.59456,11.60119 C 116.09999,13.84179 114.85306,15.1442 112.4669,15.1442 C 109.45928,15.1442 108.19527,12.73051 108.19527,9.91475 C 108.19527,7.31047 109.45918,4.68425 112.4669,4.68425 C 115.51323,4.6841445 116.72397,7.46109 116.63242,10.24088 L 109.34874,10.240775 L 109.34875,10.24077 z"
   class="fil0"
   style="fill:#d40000" />

  <path
   id="path22"
   d="M 118.191,4.97314 L 119.25503,4.97314 L 119.25503,7.29127 L 119.29121,7.29127 C 119.87649,5.70071 121.16276,4.76198 122.86839,4.83845 L 122.86839,6.04434 C 120.77703,5.931798 119.34468,7.53881 119.34468,9.58914 L 119.34478,14.8574 L 118.19099,14.8574 L 118.19099,4.97313 L 118.191,4.97314 z"
   class="fil0"
   style="fill:#d40000" />

  <path
   id="path24"
   d="M 130.448,9.22389 C 130.39284,7.40508 129.31109,5.70071 127.4388,5.70071 C 125.54964,5.70071 124.50449,7.42343 124.32064,9.22399 L 130.44799,9.2238845 L 130.448,9.22389 z M 124.32065,10.24077 C 124.33974,12.00252 125.22109,14.12858 127.43881,14.12858 C 129.12736,14.12858 130.04383,13.09387 130.41067,11.60119 L 131.56646,11.60119 C 131.07157,13.84179 129.82496,15.1442 127.4388,15.1442 C 124.43118,15.1442 123.16569,12.73051 123.16569,9.91475 C 123.16569,7.31047 124.43118,4.68425 127.4388,4.68425 C 130.48481,4.6841445 131.6944,7.46109 131.604,10.24088 L 124.32064,10.240775 L 124.32065,10.24077 z"
   class="fil0"
   style="fill:#d40000" />

  <path
   id="path26"
   d="M 137.015,14.1286 C 139.47267,14.1286 140.33588,11.96331 140.33588,9.91477 C 140.33599,7.86476 139.47267,5.70073 137.015,5.70073 C 134.81448,5.70073 133.91393,7.86476 133.91393,9.91477 C 133.91404,11.9633 134.81437,14.1286 137.015,14.1286 z M 141.49083,14.857432 L 140.42638,14.857432 L 140.42638,12.978922 L 140.3902,12.978922 C 139.89415,14.260972 138.38987,15.144212 137.015,15.144212 C 134.13532,15.144212 132.7593,12.711012 132.7593,9.914762 C 132.75941,7.118412 134.13533,4.684262 137.015,4.684262 C 138.42784,4.6841565 139.80344,5.431868 140.29833,6.849132 L 140.33599,6.849132 L 140.33599,1.181442 L 141.49083,1.181442 L 141.49083,14.857442 L 141.49083,14.857432 z"
   class="fil0"
   style="fill:#d40000" />

  <path
   id="path28"
   d="M 153.267,5.70071 C 150.81049,5.70071 149.94749,7.86474 149.94749,9.91475 C 149.9476,11.96328 150.81038,14.12858 153.267,14.12858 C 155.46837,14.12858 156.36796,11.96329 156.36796,9.91475 C 156.36807,7.86474 155.46826,5.70071 153.267,5.70071 z M 148.79075,1.18143 L 149.9476,1.18143 L 149.9476,6.84912 L 149.98483,6.84912 C 150.47972,5.43175 151.85448,4.68425 153.267,4.68425 C 156.14699,4.6841445 157.52407,7.1184 157.52407,9.91475 C 157.52407,12.711 156.14699,15.1442 153.267,15.1442 C 151.74552,15.1442 150.4235,14.318648 149.89138,12.97891 L 149.85573,12.97891 L 149.85573,14.85742 L 148.79075,14.85742 L 148.79075,1.18142 L 148.79075,1.18143 z"
   class="fil0"
   style="fill:#d40000" />

  <path
   id="path30"
   d="M 158.257,4.97314 L 159.48673,4.97314 L 162.60446,13.40196 L 165.52126,4.97314 L 166.67663,4.97314 L 162.56733,16.36974 C 161.90832,18.03572 161.52134,18.51563 160.07348,18.51563 C 159.61319,18.496117 159.37576,18.496117 159.19308,18.418382 L 159.19319,17.404342 C 159.46816,17.461404 159.7252,17.49927 159.98119,17.49927 C 161.0082,17.499164 161.2471,16.868213 161.63251,15.94932 L 162.03669,14.81968 L 158.257,4.9731695 L 158.257,4.97314 z"
   class="fil0"
   style="fill:#d40000" />

  <path
   id="path32"
   d="M 76.3116,28.977 L 80.30973,28.977 L 78.34811,23.09593 L 78.328386,23.09593 L 78.293369,23.09593 L 76.311599,28.977 L 76.3116,28.977 z M 77.117217,20.73951 L 79.559277,20.73951 L 84.602247,34.41621 L 82.145317,34.41621 L 80.916637,30.79694 L 75.687297,30.79694 L 74.459357,34.41621 L 72.092077,34.41621 L 77.117217,20.73951 L 77.117217,20.73951 z"
   class="fil0"
   style="fill:#d40000" />

  <path
   id="path34"
   d="M 93.8845,34.4163 L 91.83048,34.4163 L 91.83048,33.03658 L 91.793247,33.03658 C 91.279795,34.033529 90.141927,34.68557 89.097837,34.68557 C 86.621177,34.68557 85.557047,33.38201 85.557047,30.79703 L 85.557047,24.51389 L 87.648197,24.51389 L 87.648197,30.58714 C 87.648197,32.32779 88.326823,32.96286 89.463207,32.96286 C 91.206497,32.96286 91.793257,31.79283 91.793257,30.25975 L 91.793257,24.5139 L 93.884507,24.5139 L 93.884507,34.41631 L 93.8845,34.4163 z"
   class="fil0"
   style="fill:#d40000" />

  <path
   id="path36"
   d="M 100.342,32.9628 C 102.21218,32.9628 103.00282,31.17975 103.00282,29.45608 C 103.00282,27.27201 101.99332,25.97013 100.37955,25.97013 C 98.41497,25.970025 97.71916,27.79042 97.71916,29.56999 C 97.71916,31.27605 98.524356,32.9628 100.342,32.9628 L 100.342,32.9628 z M 105.01918,34.41624 L 103.03857,34.41624 L 103.03857,33.07576 L 103.00281,33.07576 C 102.45023,34.20476 101.25952,34.68552 100.06628,34.68552 C 97.075754,34.68552 95.627164,32.36665 95.627164,29.39912 C 95.627269,25.81582 97.662934,24.24604 99.735514,24.24604 C 100.92875,24.24604 102.24929,24.706333 102.89195,25.79768 L 102.92845,25.79768 L 102.92845,20.73952 L 105.01917,20.73952 L 105.01917,34.41622 L 105.01918,34.41624 z"
   class="fil0"
   style="fill:#d40000" />

  <path
   id="path38"
   d="M 107.349,24.5138 L 109.44057,24.5138 L 109.44057,34.41621 L 107.349,34.41621 L 107.349,24.5138 z M 107.349,20.73949 L 109.44057,20.73949 L 109.44057,22.80764 L 107.349,22.80764 L 107.349,20.73949 z"
   class="fil0"
   style="fill:#d40000" />

  <path
   id="path40"
   d="M 118.758,29.4561 C 118.758,27.7511 117.9353,25.97015 116.06217,25.97015 C 114.19284,25.970045 113.36528,27.7512 113.36528,29.4561 C 113.36539,31.17977 114.19284,32.96282 116.06217,32.96282 C 117.9354,32.96282 118.758,31.17977 118.758,29.4561 z M 111.27455,29.4561 C 111.27455,26.43087 113.01921,24.24606 116.06216,24.24606 C 119.10859,24.24606 120.85178,26.43087 120.85178,29.4561 C 120.85178,32.5019 119.10849,34.68555 116.06216,34.68555 C 113.01931,34.68555 111.27455,32.5019 111.27455,29.4561 z"
   class="fil0"
   style="fill:#d40000" />

  <path
   id="path42"
   d="M 124.171,31.2376 C 124.28006,32.50193 125.19801,32.96285 126.31647,32.96285 C 127.10542,32.96285 128.48018,32.789133 128.42702,31.65929 C 128.37133,30.51193 126.84827,30.37513 125.32753,30.01061 C 123.78412,29.665285 122.2812,29.091291 122.2812,27.0802 C 122.2812,24.91596 124.51927,24.24609 126.24358,24.24609 C 128.18706,24.24609 129.94891,25.089046 130.20638,27.29083 L 128.02305,27.29083 C 127.83878,26.25612 127.01344,25.97018 126.09697,25.97018 C 125.49133,25.970075 124.37235,26.122064 124.37235,26.9839 C 124.37235,28.05626 125.91165,28.20984 127.45359,28.57299 C 128.97739,28.938144 130.517,29.513404 130.517,31.46691 C 130.517,33.82375 128.24212,34.68558 126.28113,34.68558 C 123.89497,34.68558 122.11593,33.57387 122.07985,31.2376 L 124.171,31.2376 L 124.171,31.2376 z"
   class="fil0"
   style="fill:#d40000" />

  <path
   id="path44"
   d="M 138.515,27.8282 C 138.35014,26.62167 137.5055,25.97015 136.35087,25.97015 C 135.26891,25.970045 133.74511,26.562181 133.74511,29.57001 C 133.74522,31.219 134.44356,32.96282 136.25974,32.96282 C 137.47122,32.96282 138.3126,32.118388 138.515,30.70102 L 140.60646,30.70102 C 140.22253,33.26765 138.69916,34.68555 136.25973,34.68555 C 133.28713,34.68555 131.65469,32.48207 131.65469,29.57002 C 131.6548,26.58297 133.21414,24.24607 136.33187,24.24607 C 138.5344,24.24607 140.40521,25.39638 140.60645,27.82821 L 138.51499,27.82821 L 138.515,27.8282 z"
   class="fil0"
   style="fill:#d40000" />

  <path
   id="path46"
   d="M 142.312,24.5138 L 144.27552,24.5138 L 144.27552,26.43081 L 144.3117,26.43081 C 144.55018,25.37722 145.79805,24.246 147.08326,24.246 C 147.55916,24.246 147.68721,24.28492 147.87105,24.303273 L 147.87105,26.411923 C 147.57783,26.370999 147.26636,26.312671 146.9724,26.312671 C 145.541,26.312671 144.40419,27.521521 144.40419,29.704111 L 144.4043,34.416201 L 142.31199,34.416201 L 142.31199,24.513791 L 142.312,24.5138 z"
   class="fil0"
   style="fill:#d40000" />

  <path
   id="path48"
   d="M 155.488,29.4561 C 155.488,27.7511 154.66234,25.97015 152.79069,25.97015 C 150.91988,25.970045 150.09422,27.7512 150.09422,29.4561 C 150.09422,31.17977 150.91988,32.96282 152.79069,32.96282 C 154.66245,32.96282 155.488,31.17977 155.488,29.4561 z M 148.00308,29.4561 C 148.00308,26.43087 149.74479,24.24606 152.79069,24.24606 C 155.83554,24.24606 157.57809,26.43087 157.57809,29.4561 C 157.57809,32.5019 155.83554,34.68555 152.79069,34.68555 C 149.74479,34.68555 148.00297,32.5019 148.00308,29.4561 z"
   class="fil0"
   style="fill:#d40000" />

  <path
   id="path50"
   d="M 164.054,25.97 C 162.29352,25.97 161.3935,27.36723 161.3935,29.47409 C 161.3935,31.46683 162.36577,32.96278 164.05389,32.96278 C 165.9613,32.96278 166.67642,31.19987 166.67642,29.47409 C 166.67642,27.67353 165.77777,25.97011 164.054,25.97 L 164.054,25.97 z M 159.37566,20.7395 L 161.46797,20.7395 L 161.46797,25.79766 L 161.50288,25.79766 C 162.07255,24.83942 163.26579,24.24602 164.32855,24.24602 C 167.31866,24.24602 168.76757,26.62163 168.76757,29.51333 C 168.76757,32.17626 167.48352,34.6855 164.67831,34.6855 C 163.39268,34.6855 162.01749,34.359582 161.3935,33.05602 L 161.35585,33.05602 L 161.35585,34.41622 L 159.37566,34.41622 L 159.37566,20.73952 L 159.37566,20.7395 z"
   class="fil0"
   style="fill:#d40000" />

  <path
   id="path52"
   d="M 175.261,25.97 C 173.50105,25.97 172.60198,27.36723 172.60198,29.47409 C 172.60198,31.46683 173.57425,32.96278 175.2609,32.96278 C 177.17095,32.96278 177.88459,31.19987 177.88459,29.47409 C 177.88459,27.67353 176.98668,25.97011 175.26101,25.97 L 175.261,25.97 z M 170.58414,20.7395 L 172.67486,20.7395 L 172.67486,25.79766 L 172.71146,25.79766 C 173.28071,24.83942 174.47321,24.24602 175.53734,24.24602 C 178.52755,24.24602 179.97572,26.62163 179.97572,29.51333 C 179.97572,32.17626 178.69156,34.6855 175.8853,34.6855 C 174.6023,34.6855 173.22596,34.359582 172.60197,33.05602 L 172.5659,33.05602 L 172.5659,34.41622 L 170.58413,34.41622 L 170.58413,20.73952 L 170.58414,20.7395 z"
   class="fil0"
   style="fill:#d40000" />

  <polygon
   id="polygon54"
   points="181.792,20.7395 183.882,20.7395 183.882,34.4163 181.792,34.4163 181.792,20.7395 "
   class="fil0"
   style="fill:#d40000" />

  <path
   id="path56"
   d="M 192.67,28.5936 C 192.59669,27.21388 191.69805,25.97012 190.28627,25.97012 C 188.83557,25.970015 187.84579,27.11906 187.79105,28.5936 L 192.67,28.5936 L 192.67,28.5936 z M 187.79115,30.02964 C 187.79115,31.58255 188.59814,32.96279 190.34027,32.96279 C 191.55112,32.96279 192.28449,32.4043 192.65249,31.3139 L 194.6331,31.313795 C 194.17428,33.479085 192.41359,34.685515 190.34027,34.685515 C 187.36841,34.685515 185.69958,32.519905 185.69958,29.474105 C 185.69958,26.659405 187.46027,24.246025 190.28626,24.246025 C 193.27647,24.246025 195.109,27.062415 194.76114,30.029635 L 187.79115,30.029635 L 187.79115,30.02964 z"
   class="fil0"
   style="fill:#d40000" />

  <path
   id="path58"
   d="M 196.357,24.5138 L 198.32136,24.5138 L 198.32136,26.43081 L 198.35669,26.43081 C 198.59549,25.37722 199.84167,24.246 201.12688,24.246 C 201.60469,24.246 201.73157,24.28492 201.91499,24.303273 L 201.91499,26.411923 C 201.62135,26.370999 201.31104,26.312671 201.01635,26.312671 C 199.58495,26.312671 198.44856,27.521521 198.44856,29.704111 L 198.44856,34.416201 L 196.35699,34.416201 L 196.35699,24.513791 L 196.357,24.5138 z"
   class="fil0"
   style="fill:#d40000" />

 </g>
  </g>
</svg>
